<?xml version="1.0" encoding="UTF-8" standalone="no"?>
<!-- Created with Inkscape (http://www.inkscape.org/) -->

<svg
   version="1.1"
   id="svg1"
   width="880"
   height="880"
   viewBox="0 0 880 880"
   sodipodi:docname="pizza-slice-meal.svg"
   inkscape:version="1.3.2 (091e20e, 2023-11-25, custom)"
   xmlns:inkscape="http://www.inkscape.org/namespaces/inkscape"
   xmlns:sodipodi="http://sodipodi.sourceforge.net/DTD/sodipodi-0.dtd"
   xmlns="http://www.w3.org/2000/svg"
   xmlns:svg="http://www.w3.org/2000/svg">
  <defs
     id="defs1">
    <clipPath
       clipPathUnits="userSpaceOnUse"
       id="clipPath3">
      <path
         d="M 0,660 H 660 V 0 H 0 Z"
         transform="translate(-337.32521,-103.40721)"
         id="path3" />
    </clipPath>
    <clipPath
       clipPathUnits="userSpaceOnUse"
       id="clipPath5">
      <path
         d="M 0,660 H 660 V 0 H 0 Z"
         transform="translate(-388.79591,-495.21241)"
         id="path5" />
    </clipPath>
    <clipPath
       clipPathUnits="userSpaceOnUse"
       id="clipPath7">
      <path
         d="M 0,660 H 660 V 0 H 0 Z"
         transform="translate(-587.31541,-303.89451)"
         id="path7" />
    </clipPath>
    <clipPath
       clipPathUnits="userSpaceOnUse"
       id="clipPath9">
      <path
         d="M 0,660 H 660 V 0 H 0 Z"
         transform="translate(-304.50441,-465.38921)"
         id="path9" />
    </clipPath>
    <clipPath
       clipPathUnits="userSpaceOnUse"
       id="clipPath11">
      <path
         d="M 0,660 H 660 V 0 H 0 Z"
         transform="translate(-304.50441,-447.91461)"
         id="path11" />
    </clipPath>
    <clipPath
       clipPathUnits="userSpaceOnUse"
       id="clipPath13">
      <path
         d="M 0,660 H 660 V 0 H 0 Z"
         transform="translate(-212.6182,-415.50001)"
         id="path13" />
    </clipPath>
    <clipPath
       clipPathUnits="userSpaceOnUse"
       id="clipPath15">
      <path
         d="M 0,660 H 660 V 0 H 0 Z"
         transform="translate(-212.6182,-421.24121)"
         id="path15" />
    </clipPath>
    <clipPath
       clipPathUnits="userSpaceOnUse"
       id="clipPath17">
      <path
         d="M 0,660 H 660 V 0 H 0 Z"
         transform="translate(-226.16851,-413.25341)"
         id="path17" />
    </clipPath>
    <clipPath
       clipPathUnits="userSpaceOnUse"
       id="clipPath19">
      <path
         d="M 0,660 H 660 V 0 H 0 Z"
         transform="translate(-197.64111,-311.89841)"
         id="path19" />
    </clipPath>
    <clipPath
       clipPathUnits="userSpaceOnUse"
       id="clipPath21">
      <path
         d="M 0,660 H 660 V 0 H 0 Z"
         transform="translate(-197.64111,-317.63961)"
         id="path21" />
    </clipPath>
    <clipPath
       clipPathUnits="userSpaceOnUse"
       id="clipPath23">
      <path
         d="M 0,660 H 660 V 0 H 0 Z"
         transform="translate(-211.19241,-309.65231)"
         id="path23" />
    </clipPath>
    <clipPath
       clipPathUnits="userSpaceOnUse"
       id="clipPath25">
      <path
         d="M 0,660 H 660 V 0 H 0 Z"
         transform="translate(-356.58501,-307.15431)"
         id="path25" />
    </clipPath>
    <clipPath
       clipPathUnits="userSpaceOnUse"
       id="clipPath27">
      <path
         d="M 0,660 H 660 V 0 H 0 Z"
         transform="translate(-356.58501,-312.89651)"
         id="path27" />
    </clipPath>
    <clipPath
       clipPathUnits="userSpaceOnUse"
       id="clipPath29">
      <path
         d="M 0,660 H 660 V 0 H 0 Z"
         transform="translate(-370.13481,-304.90921)"
         id="path29" />
    </clipPath>
    <clipPath
       clipPathUnits="userSpaceOnUse"
       id="clipPath31">
      <path
         d="M 0,660 H 660 V 0 H 0 Z"
         transform="translate(-266.94381,-357.89311)"
         id="path31" />
    </clipPath>
    <clipPath
       clipPathUnits="userSpaceOnUse"
       id="clipPath33">
      <path
         d="M 0,660 H 660 V 0 H 0 Z"
         transform="translate(-266.94381,-360.00241)"
         id="path33" />
    </clipPath>
    <clipPath
       clipPathUnits="userSpaceOnUse"
       id="clipPath35">
      <path
         d="M 0,660 H 660 V 0 H 0 Z"
         transform="translate(-136.543,-355.59031)"
         id="path35" />
    </clipPath>
    <clipPath
       clipPathUnits="userSpaceOnUse"
       id="clipPath37">
      <path
         d="M 0,660 H 660 V 0 H 0 Z"
         transform="translate(-136.543,-357.69781)"
         id="path37" />
    </clipPath>
    <clipPath
       clipPathUnits="userSpaceOnUse"
       id="clipPath39">
      <path
         d="M 0,660 H 660 V 0 H 0 Z"
         transform="translate(-277.27591,-257.40631)"
         id="path39" />
    </clipPath>
    <clipPath
       clipPathUnits="userSpaceOnUse"
       id="clipPath41">
      <path
         d="M 0,660 H 660 V 0 H 0 Z"
         transform="translate(-277.27591,-259.5166)"
         id="path41" />
    </clipPath>
    <clipPath
       clipPathUnits="userSpaceOnUse"
       id="clipPath43">
      <path
         d="M 0,660 H 660 V 0 H 0 Z"
         transform="translate(-451.22851,-314.87891)"
         id="path43" />
    </clipPath>
    <clipPath
       clipPathUnits="userSpaceOnUse"
       id="clipPath45">
      <path
         d="M 0,660 H 660 V 0 H 0 Z"
         transform="translate(-451.22851,-316.98831)"
         id="path45" />
    </clipPath>
    <clipPath
       clipPathUnits="userSpaceOnUse"
       id="clipPath47">
      <path
         d="M 0,660 H 660 V 0 H 0 Z"
         transform="translate(-287.5732,-431.56491)"
         id="path47" />
    </clipPath>
    <clipPath
       clipPathUnits="userSpaceOnUse"
       id="clipPath49">
      <path
         d="M 0,660 H 660 V 0 H 0 Z"
         transform="translate(-287.5732,-433.67291)"
         id="path49" />
    </clipPath>
    <clipPath
       clipPathUnits="userSpaceOnUse"
       id="clipPath51">
      <path
         d="M 0,660 H 660 V 0 H 0 Z"
         transform="translate(-587.31541,-463.69091)"
         id="path51" />
    </clipPath>
    <clipPath
       clipPathUnits="userSpaceOnUse"
       id="clipPath53">
      <path
         d="M 0,660 H 660 V 0 H 0 Z"
         transform="translate(-587.31541,-463.69091)"
         id="path53" />
    </clipPath>
    <clipPath
       clipPathUnits="userSpaceOnUse"
       id="clipPath55">
      <path
         d="M 0,660 H 660 V 0 H 0 Z"
         transform="translate(-509.82322,-467.85401)"
         id="path55" />
    </clipPath>
    <clipPath
       clipPathUnits="userSpaceOnUse"
       id="clipPath57">
      <path
         d="M 0,660 H 660 V 0 H 0 Z"
         transform="translate(-388.79591,-631.26072)"
         id="path57" />
    </clipPath>
    <clipPath
       clipPathUnits="userSpaceOnUse"
       id="clipPath59">
      <path
         d="M 0,660 H 660 V 0 H 0 Z"
         transform="translate(-369.39751,-596.19041)"
         id="path59" />
    </clipPath>
    <clipPath
       clipPathUnits="userSpaceOnUse"
       id="clipPath61">
      <path
         d="M 0,660 H 660 V 0 H 0 Z"
         transform="translate(-360.30661,-579.75731)"
         id="path61" />
    </clipPath>
    <clipPath
       clipPathUnits="userSpaceOnUse"
       id="clipPath63">
      <path
         d="M 0,660 H 660 V 0 H 0 Z"
         transform="translate(-433.29791,-527.33152)"
         id="path63" />
    </clipPath>
    <clipPath
       clipPathUnits="userSpaceOnUse"
       id="clipPath65">
      <path
         d="M 0,660 H 660 V 0 H 0 Z"
         transform="translate(-433.29791,-533.07232)"
         id="path65" />
    </clipPath>
    <clipPath
       clipPathUnits="userSpaceOnUse"
       id="clipPath67">
      <path
         d="M 0,660 H 660 V 0 H 0 Z"
         transform="translate(-446.85061,-525.08542)"
         id="path67" />
    </clipPath>
    <clipPath
       clipPathUnits="userSpaceOnUse"
       id="clipPath69">
      <path
         d="M 0,660 H 660 V 0 H 0 Z"
         transform="translate(-378.33301,-557.77252)"
         id="path69" />
    </clipPath>
    <clipPath
       clipPathUnits="userSpaceOnUse"
       id="clipPath71">
      <path
         d="M 0,660 H 660 V 0 H 0 Z"
         transform="translate(-378.33301,-559.88092)"
         id="path71" />
    </clipPath>
    <clipPath
       clipPathUnits="userSpaceOnUse"
       id="clipPath73">
      <path
         d="M 0,660 H 660 V 0 H 0 Z"
         transform="translate(-180.123,-354.43901)"
         id="path73" />
    </clipPath>
    <clipPath
       clipPathUnits="userSpaceOnUse"
       id="clipPath75">
      <path
         d="M 0,660 H 660 V 0 H 0 Z"
         transform="translate(-295.126,-284.5156)"
         id="path75" />
    </clipPath>
    <clipPath
       clipPathUnits="userSpaceOnUse"
       id="clipPath77">
      <path
         d="M 0,660 H 660 V 0 H 0 Z"
         transform="translate(-463.26951,-278.9365)"
         id="path77" />
    </clipPath>
    <clipPath
       clipPathUnits="userSpaceOnUse"
       id="clipPath79">
      <path
         d="M 0,660 H 660 V 0 H 0 Z"
         transform="translate(-387.38091,-520.08592)"
         id="path79" />
    </clipPath>
  </defs>
  <sodipodi:namedview
     id="namedview1"
     pagecolor="#ffffff"
     bordercolor="#000000"
     borderopacity="0.25"
     inkscape:showpageshadow="2"
     inkscape:pageopacity="0.0"
     inkscape:pagecheckerboard="0"
     inkscape:deskcolor="#d1d1d1"
     inkscape:zoom="0.67272727"
     inkscape:cx="439.25676"
     inkscape:cy="440"
     inkscape:window-width="1440"
     inkscape:window-height="830"
     inkscape:window-x="-6"
     inkscape:window-y="-6"
     inkscape:window-maximized="1"
     inkscape:current-layer="g1">
    <inkscape:page
       x="0"
       y="0"
       inkscape:label="1"
       id="page1"
       width="880"
       height="880"
       margin="137.87601 25.393333 38.318668 28.929068"
       bleed="0" />
  </sodipodi:namedview>
  <g
     id="g1"
     inkscape:groupmode="layer"
     inkscape:label="1">
    <g
       id="group-MC0">
      <path
         id="path2"
         d="m 0,0 c 167.233,0 303.63,76.968 303.63,171.335 0,94.368 -136.397,171.333 -303.63,171.333 -167.232,0 -303.629,-76.965 -303.629,-171.333 C -303.629,76.968 -167.232,0 0,0"
         style="fill:#f7edea;fill-opacity:1;fill-rule:evenodd;stroke:none"
         transform="matrix(1.3333333,0,0,-1.3333333,449.76693,742.12373)"
         clip-path="url(#clipPath3)" />
      <path
         id="path4"
         d="m 0,0 v -40.402 l -72.693,-135.305 -11.599,23.331 z"
         style="fill:#ce8d19;fill-opacity:1;fill-rule:evenodd;stroke:none"
         transform="matrix(1.3333333,0,0,-1.3333333,518.39453,219.7168)"
         clip-path="url(#clipPath5)" />
      <path
         id="path6"
         d="m 0,0 c 0,-88.137 -126.617,-159.587 -282.811,-159.587 -156.19,0 -282.808,71.45 -282.808,159.587 v 38.942 c 0,88.138 126.618,159.586 282.808,159.586 29.358,0 57.669,-2.525 84.292,-7.21 L -282.811,38.942 0,23.749 Z"
         style="fill:#e87022;fill-opacity:1;fill-rule:evenodd;stroke:none"
         transform="matrix(1.3333333,0,0,-1.3333333,783.0872,474.80733)"
         clip-path="url(#clipPath7)" />
      <path
         id="path8"
         d="M 0,0 C 22.57,0 44.353,-1.839 64.893,-5.247 L 0,-122.552 222.591,-134.512 C 211.621,-196.581 116.159,-245.104 0,-245.104 c -123.518,0 -223.65,54.868 -223.65,122.552 C -223.65,-54.868 -123.518,0 0,0"
         style="fill:#f3a819;fill-opacity:1;fill-rule:evenodd;stroke:none"
         transform="matrix(1.3333333,0,0,-1.3333333,406.00587,259.48107)"
         clip-path="url(#clipPath9)" />
      <path
         id="path10"
         d="M 0,0 C 19.343,0 38.059,-1.467 55.802,-4.206 L 0,-105.078 205.319,-116.107 C 201.905,-176.636 111.293,-225.132 0,-225.132 c -113.454,0 -205.427,50.398 -205.427,112.565 C -205.427,-50.398 -113.454,0 0,0"
         style="fill:#fbc72f;fill-opacity:1;fill-rule:evenodd;stroke:none"
         transform="matrix(1.3333333,0,0,-1.3333333,406.00587,282.78053)"
         clip-path="url(#clipPath11)" />
      <path
         id="path12"
         d="m 0,0 c 20.205,0 37.148,-7.872 41.719,-18.474 h 1.219 v -5.742 c 0,-13.373 -19.225,-24.216 -42.938,-24.216 -23.715,0 -42.938,10.843 -42.938,24.216 v 5.742 h 1.217 C -37.148,-7.872 -20.206,0 0,0"
         style="fill:#da2e23;fill-opacity:1;fill-rule:evenodd;stroke:none"
         transform="matrix(1.3333333,0,0,-1.3333333,283.49093,326)"
         clip-path="url(#clipPath13)" />
      <path
         id="path14"
         d="m 0,0 c 23.713,0 42.938,-10.842 42.938,-24.215 0,-13.373 -19.225,-24.213 -42.938,-24.213 -23.715,0 -42.938,10.84 -42.938,24.213 C -42.938,-10.842 -23.715,0 0,0"
         style="fill:#f03b1f;fill-opacity:1;fill-rule:evenodd;stroke:none"
         transform="matrix(1.3333333,0,0,-1.3333333,283.49093,318.34507)"
         clip-path="url(#clipPath15)" />
      <path
         id="path16"
         d="m 0,0 c -7.328,0 -5.888,-7.265 -5.888,-16.227 0,-8.962 -1.44,-16.227 5.888,-16.227 7.328,0 20.65,7.265 20.65,16.227 C 20.65,-7.265 7.328,0 0,0 m -27.102,0 c 7.328,0 5.888,-7.265 5.888,-16.227 0,-8.962 1.44,-16.227 -5.888,-16.227 -7.327,0 -20.649,7.265 -20.649,16.227 0,8.962 13.322,16.227 20.649,16.227"
         style="fill:#da2e23;fill-opacity:1;fill-rule:evenodd;stroke:none"
         transform="matrix(1.3333333,0,0,-1.3333333,301.558,328.99547)"
         clip-path="url(#clipPath17)" />
      <path
         id="path18"
         d="m 0,0 c 20.205,0 37.148,-7.871 41.72,-18.474 h 1.217 v -5.741 C 42.937,-37.588 23.714,-48.43 0,-48.43 c -23.714,0 -42.938,10.842 -42.938,24.215 v 5.741 h 1.217 C -37.149,-7.871 -20.206,0 0,0"
         style="fill:#da2e23;fill-opacity:1;fill-rule:evenodd;stroke:none"
         transform="matrix(1.3333333,0,0,-1.3333333,263.52147,464.13547)"
         clip-path="url(#clipPath19)" />
      <path
         id="path20"
         d="m 0,0 c 23.714,0 42.937,-10.842 42.937,-24.215 0,-13.372 -19.223,-24.216 -42.937,-24.216 -23.714,0 -42.938,10.844 -42.938,24.216 C -42.938,-10.842 -23.714,0 0,0"
         style="fill:#f03b1f;fill-opacity:1;fill-rule:evenodd;stroke:none"
         transform="matrix(1.3333333,0,0,-1.3333333,263.52147,456.48053)"
         clip-path="url(#clipPath21)" />
      <path
         id="path22"
         d="m 0,0 c -7.328,0 -5.889,-7.265 -5.889,-16.227 0,-8.962 -1.439,-16.228 5.889,-16.228 7.327,0 20.65,7.266 20.65,16.228 C 20.65,-7.265 7.327,0 0,0 m -27.102,0 c 7.328,0 5.888,-7.265 5.888,-16.227 0,-8.962 1.44,-16.228 -5.888,-16.228 -7.329,0 -20.65,7.266 -20.65,16.228 0,8.962 13.321,16.227 20.65,16.227"
         style="fill:#da2e23;fill-opacity:1;fill-rule:evenodd;stroke:none"
         transform="matrix(1.3333333,0,0,-1.3333333,281.58987,467.13027)"
         clip-path="url(#clipPath23)" />
      <path
         id="path24"
         d="m 0,0 c 20.204,0 37.147,-7.872 41.72,-18.473 h 1.218 v -5.741 c 0,-13.374 -19.225,-24.214 -42.938,-24.214 -23.715,0 -42.94,10.84 -42.94,24.214 v 5.741 h 1.219 C -37.15,-7.872 -20.206,0 0,0"
         style="fill:#da2e23;fill-opacity:1;fill-rule:evenodd;stroke:none"
         transform="matrix(1.3333333,0,0,-1.3333333,475.44667,470.46093)"
         clip-path="url(#clipPath25)" />
      <path
         id="path26"
         d="m 0,0 c 23.713,0 42.938,-10.841 42.938,-24.215 0,-13.374 -19.225,-24.214 -42.938,-24.214 -23.715,0 -42.94,10.84 -42.94,24.214 C -42.94,-10.841 -23.715,0 0,0"
         style="fill:#f03b1f;fill-opacity:1;fill-rule:evenodd;stroke:none"
         transform="matrix(1.3333333,0,0,-1.3333333,475.44667,462.80467)"
         clip-path="url(#clipPath27)" />
      <path
         id="path28"
         d="m 0,0 c -7.328,0 -5.888,-7.265 -5.888,-16.228 0,-8.959 -1.44,-16.226 5.888,-16.226 7.328,0 20.65,7.267 20.65,16.226 C 20.65,-7.265 7.328,0 0,0 m -27.102,0 c 7.329,0 5.888,-7.265 5.888,-16.228 0,-8.959 1.441,-16.226 -5.888,-16.226 -7.328,0 -20.65,7.267 -20.65,16.226 0,8.963 13.322,16.228 20.65,16.228"
         style="fill:#da2e23;fill-opacity:1;fill-rule:evenodd;stroke:none"
         transform="matrix(1.3333333,0,0,-1.3333333,493.51307,473.4544)"
         clip-path="url(#clipPath29)" />
      <path
         id="path30"
         d="m 0,0 c -7.13,0 -12.912,-3.259 -12.912,-7.282 0,-4.02 5.782,-7.281 12.912,-7.281 7.13,0 12.911,3.261 12.911,7.281 C 12.911,-3.259 7.13,0 0,0 m 0,4.28 c 10.338,0 19.007,-4.028 21.346,-9.451 h 0.623 v -2.94 C 21.969,-14.953 12.132,-20.5 0,-20.5 c -12.133,0 -21.969,5.547 -21.969,12.389 v 2.94 h 0.622 C -19.007,0.252 -10.338,4.28 0,4.28"
         style="fill:#2f2825;fill-opacity:1;fill-rule:evenodd;stroke:none"
         transform="matrix(1.3333333,0,0,-1.3333333,355.92507,402.8092)"
         clip-path="url(#clipPath31)" />
      <path
         id="path32"
         d="m 0,0 c -7.13,0 -12.912,-3.26 -12.912,-7.281 0,-4.022 5.782,-7.28 12.912,-7.28 7.13,0 12.911,3.258 12.911,7.28 C 12.911,-3.26 7.13,0 0,0 m 0,5.108 c 12.132,0 21.969,-5.547 21.969,-12.389 0,-6.842 -9.837,-12.39 -21.969,-12.39 -12.133,0 -21.969,5.548 -21.969,12.39 0,6.842 9.836,12.389 21.969,12.389"
         style="fill:#463d3b;fill-opacity:1;fill-rule:evenodd;stroke:none"
         transform="matrix(1.3333333,0,0,-1.3333333,355.92507,399.9968)"
         clip-path="url(#clipPath33)" />
      <path
         id="path34"
         d="m 0,0 c -7.131,0 -12.913,-3.26 -12.913,-7.282 0,-4.021 5.782,-7.281 12.913,-7.281 7.13,0 12.911,3.26 12.911,7.281 C 12.911,-3.26 7.13,0 0,0 m 0,4.279 c 10.337,0 19.007,-4.027 21.345,-9.453 h 0.623 V -8.111 C 21.968,-14.954 12.133,-20.5 0,-20.5 c -12.134,0 -21.97,5.546 -21.97,12.389 v 2.937 h 0.624 C -19.008,0.252 -10.339,4.279 0,4.279"
         style="fill:#2f2825;fill-opacity:1;fill-rule:evenodd;stroke:none"
         transform="matrix(1.3333333,0,0,-1.3333333,182.05733,405.8796)"
         clip-path="url(#clipPath35)" />
      <path
         id="path36"
         d="m 0,0 c -7.131,0 -12.913,-3.261 -12.913,-7.281 0,-4.021 5.782,-7.282 12.913,-7.282 7.13,0 12.911,3.261 12.911,7.282 C 12.911,-3.261 7.13,0 0,0 m 0,5.108 c 12.133,0 21.968,-5.547 21.968,-12.389 0,-6.842 -9.835,-12.388 -21.968,-12.388 -12.134,0 -21.97,5.546 -21.97,12.388 0,6.842 9.836,12.389 21.97,12.389"
         style="fill:#463d3b;fill-opacity:1;fill-rule:evenodd;stroke:none"
         transform="matrix(1.3333333,0,0,-1.3333333,182.05733,403.0696)"
         clip-path="url(#clipPath37)" />
      <path
         id="path38"
         d="m 0,0 c -7.13,0 -12.911,-3.259 -12.911,-7.28 0,-4.022 5.781,-7.282 12.911,-7.282 7.131,0 12.913,3.26 12.913,7.282 C 12.913,-3.259 7.131,0 0,0 m 0,4.28 c 10.339,0 19.008,-4.027 21.346,-9.452 h 0.623 v -2.937 c 0,-6.841 -9.835,-12.389 -21.969,-12.389 -12.133,0 -21.969,5.548 -21.969,12.389 v 2.937 h 0.623 C -19.006,0.253 -10.338,4.28 0,4.28"
         style="fill:#2f2825;fill-opacity:1;fill-rule:evenodd;stroke:none"
         transform="matrix(1.3333333,0,0,-1.3333333,369.7012,536.7916)"
         clip-path="url(#clipPath39)" />
      <path
         id="path40"
         d="m 0,0 c -7.13,0 -12.911,-3.26 -12.911,-7.282 0,-4.021 5.781,-7.282 12.911,-7.282 7.131,0 12.913,3.261 12.913,7.282 C 12.913,-3.26 7.131,0 0,0 m 0,5.108 c 12.134,0 21.969,-5.545 21.969,-12.39 0,-6.843 -9.835,-12.39 -21.969,-12.39 -12.133,0 -21.969,5.547 -21.969,12.39 0,6.845 9.836,12.39 21.969,12.39"
         style="fill:#463d3b;fill-opacity:1;fill-rule:evenodd;stroke:none"
         transform="matrix(1.3333333,0,0,-1.3333333,369.7012,533.97787)"
         clip-path="url(#clipPath41)" />
      <path
         id="path42"
         d="m 0,0 c -7.13,0 -12.912,-3.261 -12.912,-7.28 0,-4.02 5.782,-7.282 12.912,-7.282 7.131,0 12.911,3.262 12.911,7.282 C 12.911,-3.261 7.131,0 0,0 m 0,4.279 c 10.339,0 19.007,-4.026 21.345,-9.451 h 0.624 V -8.109 C 21.969,-14.951 12.133,-20.5 0,-20.5 c -12.134,0 -21.971,5.549 -21.971,12.391 v 2.937 h 0.625 C -19.007,0.253 -10.338,4.279 0,4.279"
         style="fill:#2f2825;fill-opacity:1;fill-rule:evenodd;stroke:none"
         transform="matrix(1.3333333,0,0,-1.3333333,601.638,460.16147)"
         clip-path="url(#clipPath43)" />
      <path
         id="path44"
         d="m 0,0 c -7.13,0 -12.912,-3.26 -12.912,-7.281 0,-4.023 5.782,-7.28 12.912,-7.28 7.131,0 12.911,3.257 12.911,7.28 C 12.911,-3.26 7.131,0 0,0 m 0,5.109 c 12.133,0 21.969,-5.547 21.969,-12.39 0,-6.842 -9.836,-12.39 -21.969,-12.39 -12.134,0 -21.971,5.548 -21.971,12.39 0,6.843 9.837,12.39 21.971,12.39"
         style="fill:#463d3b;fill-opacity:1;fill-rule:evenodd;stroke:none"
         transform="matrix(1.3333333,0,0,-1.3333333,601.638,457.34893)"
         clip-path="url(#clipPath45)" />
      <path
         id="path46"
         d="m 0,0 c -7.132,0 -12.911,-3.261 -12.911,-7.282 0,-4.021 5.779,-7.281 12.911,-7.281 7.13,0 12.911,3.26 12.911,7.281 C 12.911,-3.261 7.13,0 0,0 m 0,4.279 c 10.337,0 19.005,-4.027 21.346,-9.452 h 0.622 v -2.938 c 0,-6.843 -9.836,-12.39 -21.968,-12.39 -12.134,0 -21.97,5.547 -21.97,12.39 v 2.938 h 0.623 C -19.007,0.252 -10.338,4.279 0,4.279"
         style="fill:#2f2825;fill-opacity:1;fill-rule:evenodd;stroke:none"
         transform="matrix(1.3333333,0,0,-1.3333333,383.43093,304.58013)"
         clip-path="url(#clipPath47)" />
      <path
         id="path48"
         d="m 0,0 c -7.132,0 -12.911,-3.26 -12.911,-7.281 0,-4.021 5.779,-7.282 12.911,-7.282 7.13,0 12.911,3.261 12.911,7.282 C 12.911,-3.26 7.13,0 0,0 m 0,5.108 c 12.132,0 21.968,-5.547 21.968,-12.389 0,-6.843 -9.836,-12.39 -21.968,-12.39 -12.134,0 -21.97,5.547 -21.97,12.39 0,6.842 9.836,12.389 21.97,12.389"
         style="fill:#463d3b;fill-opacity:1;fill-rule:evenodd;stroke:none"
         transform="matrix(1.3333333,0,0,-1.3333333,383.43093,301.76947)"
         clip-path="url(#clipPath49)" />
      <path
         id="path50"
         d="m 0,0 v -35.094 l -282.811,16.2 v 34.088 z"
         style="fill:#ce8d19;fill-opacity:1;fill-rule:evenodd;stroke:none"
         transform="matrix(1.3333333,0,0,-1.3333333,783.0872,261.74547)"
         clip-path="url(#clipPath51)" />
      <path
         id="path52"
         d="m 0,0 v -35.094 l -60.22,3.448 V 3.235 Z"
         style="fill:#c8591e;fill-opacity:1;fill-rule:evenodd;stroke:none"
         transform="matrix(1.3333333,0,0,-1.3333333,783.0872,261.74547)"
         clip-path="url(#clipPath53)" />
      <path
         id="path54"
         d="m 0,0 17.273,-8.179 v 7.251 z"
         style="fill:#d58d18;fill-opacity:1;fill-rule:evenodd;stroke:none"
         transform="matrix(1.3333333,0,0,-1.3333333,679.76427,256.19467)"
         clip-path="url(#clipPath55)" />
      <path
         id="path56"
         d="m 0,0 c 115.024,-20.24 198.519,-80.805 198.519,-152.375 v -15.195 l -282.811,15.195 z"
         style="fill:#e87022;fill-opacity:1;fill-rule:evenodd;stroke:none"
         transform="matrix(1.3333333,0,0,-1.3333333,518.39453,38.319067)"
         clip-path="url(#clipPath57)" />
      <path
         id="path58"
         d="m 0,0 c 91.87,-15.24 158.761,-61.99 158.761,-117.305 0,-4.036 -0.365,-8.025 -1.063,-11.959 l -222.591,11.959 z"
         style="fill:#f3a819;fill-opacity:1;fill-rule:evenodd;stroke:none"
         transform="matrix(1.3333333,0,0,-1.3333333,492.53,85.079467)"
         clip-path="url(#clipPath59)" />
      <path
         id="path60"
         d="m 0,0 c 86.339,-13.322 149.629,-56.791 149.629,-108.362 0,-1.185 -0.045,-2.364 -0.112,-3.541 -10.07,0.567 -13.929,2.084 -18.593,-8.978 -11.664,-28.694 -10.316,-95.669 -11.521,-133.303 l -11.34,0.376 c 0.074,4.718 0.091,8.817 -0.062,11.602 -1.33,23.959 -2.284,51.909 -8.547,74.983 -4.625,16.039 -9.578,-18.175 -9.82,-19.975 -2.575,-19.35 -3.237,-30.445 -2.017,-49.841 0.315,-5.22 0.577,-10.638 0.774,-16.119 l -12.738,0.419 c -0.701,14.574 -2.279,27.616 -2.42,42.47 -0.088,9.654 -0.057,19.313 -0.258,28.966 -0.253,10.974 -0.188,46.177 -8.264,53.315 -7.194,6.359 -13.211,-25.563 -13.772,-28.565 -2.919,-15.673 -4.173,-30.998 -5.598,-46.814 -0.78,-8.535 -1.544,-29.92 -3.651,-48.249 l -25.165,0.831 c -1.782,13.35 -2.404,26.377 -2.688,29.287 -0.729,7.448 -8.422,87.964 -20.15,80.64 -7.287,-9.995 -5.742,-44.5 -7.049,-58.376 -0.945,-10.002 -1.86,-16.639 -1.425,-26.957 0.417,-9.878 0.059,-15.223 -1.009,-23.524 l -10.392,0.342 c 0.456,4.558 0.803,9.16 0.71,14.034 -0.227,11.812 -0.747,19.937 0.378,31.987 0.802,8.611 0.513,13.463 -0.033,21.977 -0.202,3.478 -0.426,6.954 -0.661,10.43 -0.396,5.82 -0.976,11.562 -1.654,17.355 -1.625,13.623 -2.961,39.855 -15.023,48.226 -4.239,2.943 -8.296,3.875 -13.331,4.48 9.934,17.929 19.84,35.876 29.762,53.811 C -17.36,-31.383 -8.682,-15.69 0,0"
         style="fill:#fbc72f;fill-opacity:1;fill-rule:evenodd;stroke:none"
         transform="matrix(1.3333333,0,0,-1.3333333,480.4088,106.99027)"
         clip-path="url(#clipPath61)" />
      <path
         id="path62"
         d="m 0,0 c 20.207,0 37.149,-7.872 41.721,-18.474 h 1.217 v -5.742 c 0,-13.372 -19.224,-24.215 -42.938,-24.215 -23.712,0 -42.938,10.843 -42.938,24.215 v 5.742 h 1.219 C -37.146,-7.872 -20.204,0 0,0"
         style="fill:#da2e23;fill-opacity:1;fill-rule:evenodd;stroke:none"
         transform="matrix(1.3333333,0,0,-1.3333333,577.73053,176.89133)"
         clip-path="url(#clipPath63)" />
      <path
         id="path64"
         d="m 0,0 c 23.714,0 42.938,-10.841 42.938,-24.214 0,-13.374 -19.224,-24.215 -42.938,-24.215 -23.712,0 -42.938,10.841 -42.938,24.215 C -42.938,-10.841 -23.712,0 0,0"
         style="fill:#f03b1f;fill-opacity:1;fill-rule:evenodd;stroke:none"
         transform="matrix(1.3333333,0,0,-1.3333333,577.73053,169.23693)"
         clip-path="url(#clipPath65)" />
      <path
         id="path66"
         d="m 0,0 c -7.328,0 -5.889,-7.266 -5.889,-16.228 0,-8.963 -1.439,-16.227 5.889,-16.227 7.328,0 20.649,7.264 20.649,16.227 C 20.649,-7.266 7.328,0 0,0 m -27.104,0 c 7.328,0 5.89,-7.266 5.89,-16.228 0,-8.963 1.438,-16.227 -5.89,-16.227 -7.328,0 -20.65,7.264 -20.65,16.227 0,8.962 13.322,16.228 20.65,16.228"
         style="fill:#da2e23;fill-opacity:1;fill-rule:evenodd;stroke:none"
         transform="matrix(1.3333333,0,0,-1.3333333,595.8008,179.88613)"
         clip-path="url(#clipPath67)" />
      <path
         id="path68"
         d="m 0,0 c -7.129,0 -12.91,-3.26 -12.91,-7.281 0,-4.021 5.781,-7.281 12.91,-7.281 7.132,0 12.913,3.26 12.913,7.281 C 12.913,-3.26 7.132,0 0,0 m 0,4.279 c 10.34,0 19.007,-4.028 21.346,-9.452 h 0.625 V -8.11 c 0,-6.843 -9.837,-12.39 -21.971,-12.39 -12.132,0 -21.969,5.547 -21.969,12.39 v 2.937 h 0.623 C -19.008,0.251 -10.338,4.279 0,4.279"
         style="fill:#2f2825;fill-opacity:1;fill-rule:evenodd;stroke:none"
         transform="matrix(1.3333333,0,0,-1.3333333,504.444,136.30333)"
         clip-path="url(#clipPath69)" />
      <path
         id="path70"
         d="m 0,0 c -7.129,0 -12.91,-3.26 -12.91,-7.281 0,-4.022 5.781,-7.281 12.91,-7.281 7.132,0 12.913,3.259 12.913,7.281 C 12.913,-3.26 7.132,0 0,0 m 0,5.108 c 12.134,0 21.971,-5.547 21.971,-12.389 0,-6.843 -9.837,-12.39 -21.971,-12.39 -12.132,0 -21.969,5.547 -21.969,12.39 0,6.842 9.837,12.389 21.969,12.389"
         style="fill:#463d3b;fill-opacity:1;fill-rule:evenodd;stroke:none"
         transform="matrix(1.3333333,0,0,-1.3333333,504.444,133.49213)"
         clip-path="url(#clipPath71)" />
      <path
         id="path72"
         d="m 0,0 c 11.503,3.717 22.375,3.113 31.25,-0.293 10.088,-3.872 17.649,-11.367 20.812,-20.342 1.626,-3.823 -7.482,-7.24 -8.882,-3.134 -2.253,6.393 -7.806,11.795 -15.283,14.666 C 20.864,-6.404 12.173,-5.952 2.874,-8.957 -1.703,-11.088 -4.658,-1.675 0,0"
         style="fill:#2f9a3f;fill-opacity:1;fill-rule:evenodd;stroke:none"
         transform="matrix(1.3333333,0,0,-1.3333333,240.164,407.41467)"
         clip-path="url(#clipPath73)" />
      <path
         id="path74"
         d="m 0,0 c -11.397,-4.033 -22.281,-3.729 -31.247,-0.57 -10.191,3.591 -17.958,10.875 -21.366,19.759 -1.732,3.776 7.279,7.444 8.793,3.375 2.427,-6.328 8.128,-11.573 15.682,-14.234 7.104,-2.505 15.805,-2.717 25.016,0.545 C 1.395,11.131 4.61,1.804 0,0"
         style="fill:#2f9a3f;fill-opacity:1;fill-rule:evenodd;stroke:none"
         transform="matrix(1.3333333,0,0,-1.3333333,393.50133,500.64587)"
         clip-path="url(#clipPath75)" />
      <path
         id="path76"
         d="m 0,0 c -7.438,-9.529 -16.776,-15.125 -26.035,-17.283 -10.524,-2.453 -20.988,-0.49 -28.641,5.167 -3.489,2.253 2.135,10.189 5.597,7.576 5.45,-4.029 13.078,-5.389 20.879,-3.569 7.337,1.709 14.786,6.21 20.797,13.91 C -4.809,10.133 2.917,3.999 0,0"
         style="fill:#2f9a3f;fill-opacity:1;fill-rule:evenodd;stroke:none"
         transform="matrix(1.3333333,0,0,-1.3333333,617.69267,508.08467)"
         clip-path="url(#clipPath77)" />
      <path
         id="path78"
         d="m 0,0 c -7.439,-9.529 -16.778,-15.126 -26.037,-17.284 -10.523,-2.453 -20.986,-0.488 -28.642,5.169 -3.487,2.252 2.137,10.188 5.6,7.576 5.449,-4.03 13.077,-5.39 20.878,-3.571 7.335,1.71 14.785,6.21 20.799,13.912 C -4.81,10.135 2.917,4 0,0"
         style="fill:#2f9a3f;fill-opacity:1;fill-rule:evenodd;stroke:none"
         transform="matrix(1.3333333,0,0,-1.3333333,516.50787,186.55213)"
         clip-path="url(#clipPath79)" />
    </g>
  </g>
</svg>
